<svg xmlns="http://www.w3.org/2000/svg" xmlns:xlink="http://www.w3.org/1999/xlink" id="Layer_1" x="0" y="0" viewBox="0 0 400 245" xml:space="preserve" style="enable-background:new 0 0 400 245"><style type="text/css">.st0{clip-path:url(#SVGID_2_)}.st1{fill:#231f20}.st2{fill:#101011}.st3{clip-path:url(#SVGID_4_)}.st4{fill:url(#path4460_1_)}.st5{fill:url(#path4458_1_)}.st6{fill-rule:evenodd;clip-rule:evenodd;fill:url(#path4456_1_)}</style><g id="layer1" transform="translate(322.85716,-405.96212)"><g id="g4585" transform="matrix(0.21760945,0,0,-0.21760945,-730.40318,512.50689)"><g id="g4558" transform="matrix(39.039994,0,0,39.039994,-62459.022,-2751.3346)"><g id="g3623"><g transform="translate(1010.2857,27.428571)"><defs><rect id="SVGID_1_" width="400" height="66.3" x="461.1" y="8"/></defs><clipPath id="SVGID_2_"><use xlink:href="#SVGID_1_" style="overflow:visible"/></clipPath><g id="g3625" class="st0"><g id="g3631" transform="translate(755.0571,42.0247)"><path id="path3633" d="M-70.5-2.3c0-0.2-0.1-0.4-0.3-0.4c-0.2,0-0.3,0.1-0.3,0.4c0,0.2,0.1,0.4,0.3,0.4 C-70.6-2-70.5-2.1-70.5-2.3 M-70.4-2.3c0,0.2-0.2,0.4-0.4,0.4c-0.2,0-0.4-0.2-0.4-0.4c0-0.2,0.2-0.4,0.4-0.4 C-70.6-2.8-70.4-2.6-70.4-2.3" class="st1"/></g><g id="g3635" transform="translate(754.3766,42.2633)"><path id="path3637" d="M-70.1-2.5C-70.1-2.6-70.1-2.6-70.1-2.5l-0.1-0.1v0.1L-70.1-2.5 C-70.1-2.4-70.1-2.5-70.1-2.5 M-70-2.8l-0.1,0.1c0,0,0,0,0,0.1c0.1,0,0.1,0,0.1,0.1c0,0.1,0,0.1-0.1,0.1h-0.1v-0.4h0.1v0.2 c0,0,0,0,0.1,0L-70-2.8L-70-2.8z" class="st1"/></g></g></g></g><g id="g3719" transform="translate(1678.0568,77.434471)"><path id="path3721" d="M-18.1-7.1l-0.8-1.8h1.6L-18.1-7.1z M-15.7-10.7h-0.8L-17-9.6h-2.1l-0.5-1.1h-0.8l2,4.6h0.7 C-17.7-6.2-15.7-10.7-15.7-10.7z" class="st2"/></g><g id="g3723" transform="translate(1702.2941,68.429171)"><path id="path3725" d="M-32.6-1.7h-0.8V2h-1.4v0.7h3.7L-31.5,2h-1.2V-1.7z" class="st2"/></g><g id="g3727" transform="translate(1740.2972,77.886371)"><path id="path3729" d="M-55.4-7.4h-2.4v-1.1h1.5v-0.7h-1.5v-1.2h2.4v-0.7h-3.2v4.5h3.2V-7.4z" class="st2"/></g><path id="path3731" d="M1690.5,66.7h-0.8v4.5h0.8V66.7z" class="st2"/><g id="g3733"><g transform="translate(1010.2857,27.428571)"><defs><rect id="SVGID_3_" width="400" height="66.3" x="461.1" y="8"/></defs><clipPath id="SVGID_4_"><use xlink:href="#SVGID_3_" style="overflow:visible"/></clipPath><g id="g3735" class="st3"><g id="g3741" transform="translate(736.1471,50.6673)"><path id="path3743" d="M-59.1-7.5C-59.6-7.5-60-7.7-60-8c0-0.4,0.2-0.5,1.1-0.8c0.9-0.3,1.4-0.6,1.4-1.4 c0-0.9-0.7-1.4-1.6-1.4c-0.7,0-1.3,0.2-1.8,0.6l0.3,0.7c0.4-0.4,0.9-0.6,1.5-0.6c0.5,0,0.8,0.2,0.8,0.6c0,0.3-0.2,0.5-1,0.8 c-0.9,0.3-1.5,0.6-1.5,1.4c0,0.8,0.7,1.2,1.6,1.2c0.9,0,1.4-0.3,1.5-0.4l-0.3-0.6C-58.1-7.7-58.5-7.5-59.1-7.5" class="st2"/></g><g id="g3745" transform="translate(746.6359,46.8288)"><path id="path3747" d="M-65.4-5.2l2,2.2h-1l-2-2.2l2.2-2.3h1L-65.4-5.2z" class="st2"/></g><g id="g3749" transform="translate(701.8704,42.6286)"><path id="path3751" d="M-38.6-2.7c-0.9,0-1.5,0.7-1.5,1.6s0.6,1.6,1.5,1.6S-37-0.2-37-1.1S-37.7-2.7-38.6-2.7 M-38.6,1.2c-1.3,0-2.3-1-2.3-2.3s1-2.3,2.3-2.3c1.3,0,2.3,1,2.3,2.3S-37.3,1.2-38.6,1.2" class="st2"/></g><g id="g3753" transform="translate(714.0898,42.8078)"><path id="path3755" d="M-45.9-2.8l-0.9,0v3.1h0.9c0.9,0,1.5-0.6,1.5-1.5S-45-2.8-45.9-2.8 M-45.9,1h-1.7v-4.5 l1.7,0c1.3,0,2.3,1,2.3,2.3C-43.6,0-44.6,1-45.9,1" class="st2"/></g><g id="g3757" transform="translate(684.2415,46.0058)"><path id="path3759" d="M-28-4.7c0-1.3-0.8-2.1-1.9-2.1c-1.1,0-1.9,0.7-1.9,2.1v2.5h0.8v-2.6 c0-0.8,0.5-1.3,1.1-1.3c0.7,0,1.1,0.5,1.1,1.3v2.6h0.8V-4.7z" class="st2"/></g></g></g></g></g><linearGradient id="path4460_1_" x1="4501.281" x2="4719.559" y1="3720.906" y2="3677.415" gradientTransform="matrix(0.1741 0 0 -0.1741 1116.0342 468.0434)" gradientUnits="userSpaceOnUse"><stop offset="0" style="stop-color:#2d7b78"/><stop offset=".51" style="stop-color:#50baa9"/><stop offset="1" style="stop-color:#5fc2b1"/></linearGradient><path id="path4460" d="M1934.6-226c-8.7,0-13.2,3.3-17.5,10.9l-39.6,73.4c-2.7,5.3-2.8,7-2.8,10.8l62.2-2.7l14.2-14.2 h124.8l-103.6-64.2C1967.3-215.1,1948.1-226,1934.6-226z" class="st4"/><linearGradient id="path4458_1_" x1="5041.486" x2="4933.167" y1="2377.844" y2="2632.229" gradientTransform="matrix(0.1741 0 0 -0.1741 1116.0342 468.0434)" gradientUnits="userSpaceOnUse"><stop offset="0" style="stop-color:#256837"/><stop offset=".493" style="stop-color:#6ba442"/><stop offset="1" style="stop-color:#87c146"/></linearGradient><path id="path4458" d="M1951.2-147.9h-53.8c-16.3,0-22.7,8.5-22.7,17c0,5.4,1.7,8.3,4.1,14.3l78.4,187.2l0.8,1.6 l1.1,1.7l2.3,2.2l3.3,1.8l4.8,1.1l8.3-0.2l54.5-20.3l-18.4-58.1L1951.2-147.9z" class="st5"/><linearGradient id="path4456_1_" x1="5150.841" x2="5310.037" y1="2265.738" y2="2644.854" gradientTransform="matrix(0.1741 0 0 -0.1741 1116.0342 468.0434)" gradientUnits="userSpaceOnUse"><stop offset="0" style="stop-color:#33a4dd"/><stop offset=".515" style="stop-color:#396fb6"/><stop offset="1" style="stop-color:#3b50a2"/></linearGradient><path id="path4456" d="M2109.2-226L1985.4,67.1c-2.1,5-5.6,11.4-14.4,11.4c-7.9,0-11.7-3.8-13.8-7.9 c1.1,3,4.4,8.7,14.1,8.7h85.4c7.9,0,11.7-4.6,13.4-8.9L2195.3-226H2109.2z" class="st6"/></g></g></svg>